<svg version="1.1" xmlns="http://www.w3.org/2000/svg" xmlns:xlink="http://www.w3.org/1999/xlink" width="400" height="400" enable-background="new 0 0 400 400" xml:space="preserve" style=""><rect id="backgroundrect" width="100%" height="100%" x="0" y="0" fill="none" stroke="none"/>

<g class="currentLayer" style=""><title>Layer 1</title><g id="svg_1" class="selected" fill="#ef4343" fill-opacity="1">
	<g id="svg_2" fill="#ef4343" fill-opacity="1">
		<path fill="#ef4343" d="M200,257.143l-49.486-43.314L9.029,335.114c5.143,4.771,12.086,7.743,19.743,7.743h342.457    c7.629,0,14.543-2.971,19.657-7.743l-141.4-121.286L200,257.143z" id="svg_3" fill-opacity="1"/>
		<path fill="#ef4343" d="M390.971,64.886c-5.143-4.8-12.057-7.743-19.743-7.743H28.771c-7.629,0-14.543,2.971-19.686,7.8    L200,228.571L390.971,64.886z" id="svg_4" fill-opacity="1"/>
		<polygon fill="#ef4343" points="0,82.229 0,319.6 138.086,202.257   " id="svg_5" fill-opacity="1"/>
		<polygon fill="#ef4343" points="261.914,202.257 400,319.6 400,82.143   " id="svg_6" fill-opacity="1"/>
	</g>
</g></g></svg>